<svg viewBox="0 0 902 150" xmlns="http://www.w3.org/2000/svg" font-family="Arial, sans-serif">
<rect x="20" y="18" width="90" height="90" fill="none" stroke="#111" stroke-width="2.5"/>
<text x="65.0" y="130" font-size="16" text-anchor="middle" font-family="Arial, sans-serif" fill="#111">1</text>
<line x1="34.4" y1="88.2" x2="95.6" y2="88.2" stroke="#111" stroke-width="2.2"/><polygon points="56.9,96.3 73.1,96.3 65.0,88.2" fill="#111"/>
<polygon points="45.2,88.2 84.8,88.2 65.0,78.8" fill="none" stroke="#111" stroke-width="1.8"/><rect x="45.2" y="66.3" width="39.6" height="9.4" fill="none" stroke="#111" stroke-width="1.8"/><rect x="45.2" y="53.9" width="39.6" height="9.4" fill="none" stroke="#111" stroke-width="1.8"/><rect x="45.2" y="41.4" width="39.6" height="9.4" fill="none" stroke="#111" stroke-width="1.8"/>
<rect x="126" y="18" width="90" height="90" fill="none" stroke="#111" stroke-width="2.5"/>
<text x="171.0" y="130" font-size="16" text-anchor="middle" font-family="Arial, sans-serif" fill="#111">2</text>
<line x1="140.4" y1="88.2" x2="201.6" y2="88.2" stroke="#111" stroke-width="2.2"/><polygon points="162.9,96.3 179.1,96.3 171.0,88.2" fill="#111"/>
<polygon points="151.2,88.2 190.8,88.2 171.0,78.8" fill="none" stroke="#111" stroke-width="1.8"/><polygon points="151.2,75.8 190.8,75.8 171.0,66.3" fill="none" stroke="#111" stroke-width="1.8"/><rect x="151.2" y="53.9" width="39.6" height="9.4" fill="none" stroke="#111" stroke-width="1.8"/><rect x="151.2" y="41.4" width="39.6" height="9.4" fill="none" stroke="#111" stroke-width="1.8"/>
<rect x="232" y="18" width="90" height="90" fill="none" stroke="#111" stroke-width="2.5"/>
<text x="277.0" y="130" font-size="16" text-anchor="middle" font-family="Arial, sans-serif" fill="#111">3</text>
<line x1="246.4" y1="88.2" x2="307.6" y2="88.2" stroke="#111" stroke-width="2.2"/><polygon points="268.9,96.3 285.1,96.3 277.0,88.2" fill="#111"/>
<polygon points="257.2,88.2 296.8,88.2 277.0,78.8" fill="none" stroke="#111" stroke-width="1.8"/><polygon points="257.2,75.8 296.8,75.8 277.0,66.3" fill="none" stroke="#111" stroke-width="1.8"/><polygon points="257.2,63.3 296.8,63.3 277.0,53.9" fill="none" stroke="#111" stroke-width="1.8"/><rect x="257.2" y="41.4" width="39.6" height="9.4" fill="none" stroke="#111" stroke-width="1.8"/>
<rect x="368" y="18" width="90" height="90" fill="none" stroke="#111" stroke-width="2.5"/>
<text x="413.0" y="130" font-size="16" text-anchor="middle" font-family="Arial, sans-serif" fill="#111">(A)</text>
<line x1="382.4" y1="88.2" x2="443.6" y2="88.2" stroke="#111" stroke-width="2.2"/><polygon points="404.9,96.3 421.1,96.3 413.0,88.2" fill="#111"/>
<polygon points="393.2,88.2 432.8,88.2 413.0,78.8" fill="none" stroke="#111" stroke-width="1.8"/><polygon points="393.2,75.8 432.8,75.8 413.0,66.3" fill="none" stroke="#111" stroke-width="1.8"/><polygon points="393.2,63.3 432.8,63.3 413.0,53.9" fill="none" stroke="#111" stroke-width="1.8"/><rect x="393.2" y="41.4" width="39.6" height="9.4" fill="none" stroke="#111" stroke-width="1.8"/>
<rect x="474" y="18" width="90" height="90" fill="none" stroke="#111" stroke-width="2.5"/>
<text x="519.0" y="130" font-size="16" text-anchor="middle" font-family="Arial, sans-serif" fill="#111">(B)</text>
<line x1="488.4" y1="88.2" x2="549.6" y2="88.2" stroke="#111" stroke-width="2.2"/><polygon points="510.9,96.3 527.1,96.3 519.0,88.2" fill="#111"/>
<polygon points="499.2,88.2 538.8,88.2 519.0,78.8" fill="none" stroke="#111" stroke-width="1.8"/><polygon points="499.2,75.8 538.8,75.8 519.0,66.3" fill="none" stroke="#111" stroke-width="1.8"/><polygon points="499.2,63.3 538.8,63.3 519.0,53.9" fill="none" stroke="#111" stroke-width="1.8"/><polygon points="499.2,50.9 538.8,50.9 519.0,41.4" fill="none" stroke="#111" stroke-width="1.8"/>
<rect x="580" y="18" width="90" height="90" fill="none" stroke="#111" stroke-width="2.5"/>
<text x="625.0" y="130" font-size="16" text-anchor="middle" font-family="Arial, sans-serif" fill="#111">(C)</text>
<line x1="594.4" y1="88.2" x2="655.6" y2="88.2" stroke="#111" stroke-width="2.2"/><polygon points="616.9,96.3 633.1,96.3 625.0,88.2" fill="#111"/>
<rect x="605.2" y="78.8" width="39.6" height="9.4" fill="none" stroke="#111" stroke-width="1.8"/><polygon points="605.2,75.8 644.8,75.8 625.0,66.3" fill="none" stroke="#111" stroke-width="1.8"/><polygon points="605.2,63.3 644.8,63.3 625.0,53.9" fill="none" stroke="#111" stroke-width="1.8"/><polygon points="605.2,50.9 644.8,50.9 625.0,41.4" fill="none" stroke="#111" stroke-width="1.8"/>
<rect x="686" y="18" width="90" height="90" fill="none" stroke="#111" stroke-width="2.5"/>
<text x="731.0" y="130" font-size="16" text-anchor="middle" font-family="Arial, sans-serif" fill="#111">(D)</text>
<line x1="700.4" y1="88.2" x2="761.6" y2="88.2" stroke="#111" stroke-width="2.2"/><polygon points="722.9,96.3 739.1,96.3 731.0,88.2" fill="#111"/>
<polygon points="711.2,88.2 750.8,88.2 731.0,78.8" fill="none" stroke="#111" stroke-width="1.8"/><polygon points="711.2,75.8 750.8,75.8 731.0,66.3" fill="none" stroke="#111" stroke-width="1.8"/><rect x="711.2" y="53.9" width="39.6" height="9.4" fill="none" stroke="#111" stroke-width="1.8"/><rect x="711.2" y="41.4" width="39.6" height="9.4" fill="none" stroke="#111" stroke-width="1.8"/>
<rect x="792" y="18" width="90" height="90" fill="none" stroke="#111" stroke-width="2.5"/>
<text x="837.0" y="130" font-size="16" text-anchor="middle" font-family="Arial, sans-serif" fill="#111">(E)</text>
<line x1="806.4" y1="88.2" x2="867.6" y2="88.2" stroke="#111" stroke-width="2.2"/><polygon points="828.9,96.3 845.1,96.3 837.0,88.2" fill="#111"/>
<polygon points="817.2,88.2 856.8,88.2 837.0,78.8" fill="none" stroke="#111" stroke-width="1.8"/><polygon points="817.2,75.8 856.8,75.8 837.0,66.3" fill="none" stroke="#111" stroke-width="1.8"/><polygon points="817.2,63.3 856.8,63.3 837.0,53.9" fill="none" stroke="#111" stroke-width="1.8"/>
</svg>