<svg viewBox="0 0 712 150" xmlns="http://www.w3.org/2000/svg" font-family="Arial, sans-serif">
<rect x="20" y="18" width="64" height="64" fill="none" stroke="#111" stroke-width="2.5"/>
<text x="52.0" y="104" font-size="16" text-anchor="middle" font-family="Arial, sans-serif" fill="#111">1</text>
<g transform="rotate(0.0 52.0 50.0)"><path d="M52.0,50.0 L52.0,24.4 L74.2,37.2 Z" fill="#111" stroke="#111" stroke-width="1.3"/><path d="M52.0,50.0 L74.2,37.2 L74.2,62.8 Z" fill="white" stroke="#111" stroke-width="1.3"/><path d="M52.0,50.0 L74.2,62.8 L52.0,75.6 Z" fill="#111" stroke="#111" stroke-width="1.3"/><path d="M52.0,50.0 L52.0,75.6 L29.8,62.8 Z" fill="white" stroke="#111" stroke-width="1.3"/><path d="M52.0,50.0 L29.8,62.8 L29.8,37.2 Z" fill="#111" stroke="#111" stroke-width="1.3"/><path d="M52.0,50.0 L29.8,37.2 L52.0,24.4 Z" fill="white" stroke="#111" stroke-width="1.3"/><circle cx="52.0" cy="24.4" r="4.1" fill="#111"/><circle cx="74.2" cy="37.2" r="2.0" fill="#111"/><circle cx="74.2" cy="62.8" r="4.1" fill="#111"/><circle cx="52.0" cy="75.6" r="2.0" fill="#111"/><circle cx="29.8" cy="62.8" r="4.1" fill="#111"/><circle cx="29.8" cy="37.2" r="2.0" fill="#111"/></g>
<rect x="102" y="18" width="64" height="64" fill="none" stroke="#111" stroke-width="2.5"/>
<text x="134.0" y="104" font-size="16" text-anchor="middle" font-family="Arial, sans-serif" fill="#111">2</text>
<g transform="rotate(20.0 134.0 50.0)"><path d="M134.0,50.0 L134.0,24.4 L156.2,37.2 Z" fill="#111" stroke="#111" stroke-width="1.3"/><path d="M134.0,50.0 L156.2,37.2 L156.2,62.8 Z" fill="white" stroke="#111" stroke-width="1.3"/><path d="M134.0,50.0 L156.2,62.8 L134.0,75.6 Z" fill="#111" stroke="#111" stroke-width="1.3"/><path d="M134.0,50.0 L134.0,75.6 L111.8,62.8 Z" fill="white" stroke="#111" stroke-width="1.3"/><path d="M134.0,50.0 L111.8,62.8 L111.8,37.2 Z" fill="#111" stroke="#111" stroke-width="1.3"/><path d="M134.0,50.0 L111.8,37.2 L134.0,24.4 Z" fill="white" stroke="#111" stroke-width="1.3"/><circle cx="134.0" cy="24.4" r="4.1" fill="#111"/><circle cx="156.2" cy="37.2" r="2.0" fill="#111"/><circle cx="156.2" cy="62.8" r="4.1" fill="#111"/><circle cx="134.0" cy="75.6" r="2.0" fill="#111"/><circle cx="111.8" cy="62.8" r="4.1" fill="#111"/><circle cx="111.8" cy="37.2" r="2.0" fill="#111"/></g>
<rect x="184" y="18" width="64" height="64" fill="none" stroke="#111" stroke-width="2.5"/>
<text x="216.0" y="104" font-size="16" text-anchor="middle" font-family="Arial, sans-serif" fill="#111">3</text>
<g transform="rotate(40.0 216.0 50.0)"><path d="M216.0,50.0 L216.0,24.4 L238.2,37.2 Z" fill="#111" stroke="#111" stroke-width="1.3"/><path d="M216.0,50.0 L238.2,37.2 L238.2,62.8 Z" fill="white" stroke="#111" stroke-width="1.3"/><path d="M216.0,50.0 L238.2,62.8 L216.0,75.6 Z" fill="#111" stroke="#111" stroke-width="1.3"/><path d="M216.0,50.0 L216.0,75.6 L193.8,62.8 Z" fill="white" stroke="#111" stroke-width="1.3"/><path d="M216.0,50.0 L193.8,62.8 L193.8,37.2 Z" fill="#111" stroke="#111" stroke-width="1.3"/><path d="M216.0,50.0 L193.8,37.2 L216.0,24.4 Z" fill="white" stroke="#111" stroke-width="1.3"/><circle cx="216.0" cy="24.4" r="4.1" fill="#111"/><circle cx="238.2" cy="37.2" r="2.0" fill="#111"/><circle cx="238.2" cy="62.8" r="4.1" fill="#111"/><circle cx="216.0" cy="75.6" r="2.0" fill="#111"/><circle cx="193.8" cy="62.8" r="4.1" fill="#111"/><circle cx="193.8" cy="37.2" r="2.0" fill="#111"/></g>
<rect x="300" y="18" width="64" height="64" fill="none" stroke="#111" stroke-width="2.5"/>
<text x="332.0" y="104" font-size="16" text-anchor="middle" font-family="Arial, sans-serif" fill="#111">(A)</text>
<g transform="rotate(40.0 332.0 50.0)"><path d="M332.0,50.0 L332.0,24.4 L354.2,37.2 Z" fill="#111" stroke="#111" stroke-width="1.3"/><path d="M332.0,50.0 L354.2,37.2 L354.2,62.8 Z" fill="white" stroke="#111" stroke-width="1.3"/><path d="M332.0,50.0 L354.2,62.8 L332.0,75.6 Z" fill="#111" stroke="#111" stroke-width="1.3"/><path d="M332.0,50.0 L332.0,75.6 L309.8,62.8 Z" fill="white" stroke="#111" stroke-width="1.3"/><path d="M332.0,50.0 L309.8,62.8 L309.8,37.2 Z" fill="#111" stroke="#111" stroke-width="1.3"/><path d="M332.0,50.0 L309.8,37.2 L332.0,24.4 Z" fill="white" stroke="#111" stroke-width="1.3"/><circle cx="332.0" cy="24.4" r="4.1" fill="#111"/><circle cx="354.2" cy="37.2" r="2.0" fill="#111"/><circle cx="354.2" cy="62.8" r="4.1" fill="#111"/><circle cx="332.0" cy="75.6" r="2.0" fill="#111"/><circle cx="309.8" cy="62.8" r="4.1" fill="#111"/><circle cx="309.8" cy="37.2" r="2.0" fill="#111"/></g>
<rect x="382" y="18" width="64" height="64" fill="none" stroke="#111" stroke-width="2.5"/>
<text x="414.0" y="104" font-size="16" text-anchor="middle" font-family="Arial, sans-serif" fill="#111">(B)</text>
<g transform="rotate(60.0 414.0 50.0)"><path d="M414.0,50.0 L414.0,24.4 L436.2,37.2 Z" fill="white" stroke="#111" stroke-width="1.3"/><path d="M414.0,50.0 L436.2,37.2 L436.2,62.8 Z" fill="#111" stroke="#111" stroke-width="1.3"/><path d="M414.0,50.0 L436.2,62.8 L414.0,75.6 Z" fill="white" stroke="#111" stroke-width="1.3"/><path d="M414.0,50.0 L414.0,75.6 L391.8,62.8 Z" fill="#111" stroke="#111" stroke-width="1.3"/><path d="M414.0,50.0 L391.8,62.8 L391.8,37.2 Z" fill="white" stroke="#111" stroke-width="1.3"/><path d="M414.0,50.0 L391.8,37.2 L414.0,24.4 Z" fill="#111" stroke="#111" stroke-width="1.3"/><circle cx="414.0" cy="24.4" r="4.1" fill="#111"/><circle cx="436.2" cy="37.2" r="2.0" fill="#111"/><circle cx="436.2" cy="62.8" r="4.1" fill="#111"/><circle cx="414.0" cy="75.6" r="2.0" fill="#111"/><circle cx="391.8" cy="62.8" r="4.1" fill="#111"/><circle cx="391.8" cy="37.2" r="2.0" fill="#111"/></g>
<rect x="464" y="18" width="64" height="64" fill="none" stroke="#111" stroke-width="2.5"/>
<text x="496.0" y="104" font-size="16" text-anchor="middle" font-family="Arial, sans-serif" fill="#111">(C)</text>
<g transform="rotate(60.0 496.0 50.0)"><path d="M496.0,50.0 L496.0,24.4 L518.2,37.2 Z" fill="#111" stroke="#111" stroke-width="1.3"/><path d="M496.0,50.0 L518.2,37.2 L518.2,62.8 Z" fill="white" stroke="#111" stroke-width="1.3"/><path d="M496.0,50.0 L518.2,62.8 L496.0,75.6 Z" fill="#111" stroke="#111" stroke-width="1.3"/><path d="M496.0,50.0 L496.0,75.6 L473.8,62.8 Z" fill="white" stroke="#111" stroke-width="1.3"/><path d="M496.0,50.0 L473.8,62.8 L473.8,37.2 Z" fill="#111" stroke="#111" stroke-width="1.3"/><path d="M496.0,50.0 L473.8,37.2 L496.0,24.4 Z" fill="white" stroke="#111" stroke-width="1.3"/><circle cx="496.0" cy="24.4" r="2.0" fill="#111"/><circle cx="518.2" cy="37.2" r="4.1" fill="#111"/><circle cx="518.2" cy="62.8" r="2.0" fill="#111"/><circle cx="496.0" cy="75.6" r="4.1" fill="#111"/><circle cx="473.8" cy="62.8" r="2.0" fill="#111"/><circle cx="473.8" cy="37.2" r="4.1" fill="#111"/></g>
<rect x="546" y="18" width="64" height="64" fill="none" stroke="#111" stroke-width="2.5"/>
<text x="578.0" y="104" font-size="16" text-anchor="middle" font-family="Arial, sans-serif" fill="#111">(D)</text>
<g transform="rotate(-60.0 578.0 50.0)"><path d="M578.0,50.0 L578.0,24.4 L600.2,37.2 Z" fill="#111" stroke="#111" stroke-width="1.3"/><path d="M578.0,50.0 L600.2,37.2 L600.2,62.8 Z" fill="white" stroke="#111" stroke-width="1.3"/><path d="M578.0,50.0 L600.2,62.8 L578.0,75.6 Z" fill="#111" stroke="#111" stroke-width="1.3"/><path d="M578.0,50.0 L578.0,75.6 L555.8,62.8 Z" fill="white" stroke="#111" stroke-width="1.3"/><path d="M578.0,50.0 L555.8,62.8 L555.8,37.2 Z" fill="#111" stroke="#111" stroke-width="1.3"/><path d="M578.0,50.0 L555.8,37.2 L578.0,24.4 Z" fill="white" stroke="#111" stroke-width="1.3"/><circle cx="578.0" cy="24.4" r="4.1" fill="#111"/><circle cx="600.2" cy="37.2" r="2.0" fill="#111"/><circle cx="600.2" cy="62.8" r="4.1" fill="#111"/><circle cx="578.0" cy="75.6" r="2.0" fill="#111"/><circle cx="555.8" cy="62.8" r="4.1" fill="#111"/><circle cx="555.8" cy="37.2" r="2.0" fill="#111"/></g>
<rect x="628" y="18" width="64" height="64" fill="none" stroke="#111" stroke-width="2.5"/>
<text x="660.0" y="104" font-size="16" text-anchor="middle" font-family="Arial, sans-serif" fill="#111">(E)</text>
<g transform="rotate(60.0 660.0 50.0)"><path d="M660.0,50.0 L660.0,24.4 L682.2,37.2 Z" fill="#111" stroke="#111" stroke-width="1.3"/><path d="M660.0,50.0 L682.2,37.2 L682.2,62.8 Z" fill="white" stroke="#111" stroke-width="1.3"/><path d="M660.0,50.0 L682.2,62.8 L660.0,75.6 Z" fill="#111" stroke="#111" stroke-width="1.3"/><path d="M660.0,50.0 L660.0,75.6 L637.8,62.8 Z" fill="white" stroke="#111" stroke-width="1.3"/><path d="M660.0,50.0 L637.8,62.8 L637.8,37.2 Z" fill="#111" stroke="#111" stroke-width="1.3"/><path d="M660.0,50.0 L637.8,37.2 L660.0,24.4 Z" fill="white" stroke="#111" stroke-width="1.3"/><circle cx="660.0" cy="24.4" r="4.1" fill="#111"/><circle cx="682.2" cy="37.2" r="2.0" fill="#111"/><circle cx="682.2" cy="62.8" r="4.1" fill="#111"/><circle cx="660.0" cy="75.6" r="2.0" fill="#111"/><circle cx="637.8" cy="62.8" r="4.1" fill="#111"/><circle cx="637.8" cy="37.2" r="2.0" fill="#111"/></g>
</svg>