<svg xmlns="http://www.w3.org/2000/svg" viewBox="0 0 460 205" width="460" height="205">
  <rect x="1" y="1" width="458" height="203" rx="12" fill="#fff" stroke="#cbd5e0"/>
  <circle cx="54" cy="58" r="28" fill="none" stroke="#1a365d" stroke-width="3"/>
  <circle cx="44" cy="48" r="7" fill="#1a365d"/>
  <rect x="128" y="32" width="56" height="56" fill="none" stroke="#1a365d" stroke-width="3"/>
  <circle cx="170" cy="46" r="7" fill="#1a365d"/>
  <circle cx="254" cy="58" r="28" fill="none" stroke="#1a365d" stroke-width="3"/>
  <circle cx="264" cy="68" r="7" fill="#1a365d"/>
  <text x="330" y="68" font-family="sans-serif" font-size="28" fill="#718096">?</text>
  <g font-family="sans-serif" font-size="13" fill="#475569">
    <text x="50" y="108">1</text>
    <text x="152" y="108">2</text>
    <text x="250" y="108">3</text>
    <text x="324" y="108">4</text>
  </g>
  <g font-family="sans-serif" font-size="14" fill="#1a365d">
    <text x="44" y="140">A</text>
    <text x="144" y="140">B</text>
    <text x="244" y="140">C</text>
    <text x="344" y="140">D</text>
  </g>
  <rect x="28" y="150" width="56" height="44" fill="none" stroke="#1a365d" stroke-width="3"/>
  <circle cx="42" cy="180" r="7" fill="#1a365d"/>
  <rect x="128" y="150" width="56" height="44" fill="none" stroke="#1a365d" stroke-width="3"/>
  <circle cx="170" cy="164" r="7" fill="#1a365d"/>
  <circle cx="254" cy="172" r="24" fill="none" stroke="#1a365d" stroke-width="3"/>
  <circle cx="244" cy="162" r="7" fill="#1a365d"/>
  <circle cx="354" cy="172" r="24" fill="none" stroke="#1a365d" stroke-width="3"/>
  <circle cx="364" cy="182" r="7" fill="#1a365d"/>
</svg>
