<svg viewBox="0 0 612 150" xmlns="http://www.w3.org/2000/svg" font-family="Arial, sans-serif">
<rect x="20" y="18" width="100" height="100" fill="none" stroke="#111" stroke-width="2.5"/>
<text x="70.0" y="140" font-size="16" text-anchor="middle" font-family="Arial, sans-serif" fill="#111">(A)</text>
<rect x="20.0" y="18.0" width="25.0" height="25.0" fill="white" stroke="#111" stroke-width="1"/><rect x="45.0" y="18.0" width="25.0" height="25.0" fill="white" stroke="#111" stroke-width="1"/><rect x="70.0" y="18.0" width="25.0" height="25.0" fill="white" stroke="#111" stroke-width="1"/><rect x="95.0" y="18.0" width="25.0" height="25.0" fill="white" stroke="#111" stroke-width="1"/><rect x="20.0" y="43.0" width="25.0" height="25.0" fill="#999" stroke="#111" stroke-width="1"/><rect x="45.0" y="43.0" width="25.0" height="25.0" fill="white" stroke="#111" stroke-width="1"/><rect x="70.0" y="43.0" width="25.0" height="25.0" fill="white" stroke="#111" stroke-width="1"/><rect x="95.0" y="43.0" width="25.0" height="25.0" fill="white" stroke="#111" stroke-width="1"/><rect x="20.0" y="68.0" width="25.0" height="25.0" fill="#999" stroke="#111" stroke-width="1"/><rect x="45.0" y="68.0" width="25.0" height="25.0" fill="white" stroke="#111" stroke-width="1"/><rect x="70.0" y="68.0" width="25.0" height="25.0" fill="white" stroke="#111" stroke-width="1"/><rect x="95.0" y="68.0" width="25.0" height="25.0" fill="white" stroke="#111" stroke-width="1"/><rect x="20.0" y="93.0" width="25.0" height="25.0" fill="#999" stroke="#111" stroke-width="1"/><rect x="45.0" y="93.0" width="25.0" height="25.0" fill="white" stroke="#111" stroke-width="1"/><rect x="70.0" y="93.0" width="25.0" height="25.0" fill="white" stroke="#111" stroke-width="1"/><rect x="95.0" y="93.0" width="25.0" height="25.0" fill="#999" stroke="#111" stroke-width="1"/>
<line x1="32.5" y1="55.5" x2="107.5" y2="105.5" stroke="#111" stroke-width="1.6"/>
<line x1="32.5" y1="80.5" x2="32.5" y2="105.5" stroke="#111" stroke-width="1.6"/>
<rect x="138" y="18" width="100" height="100" fill="none" stroke="#111" stroke-width="2.5"/>
<text x="188.0" y="140" font-size="16" text-anchor="middle" font-family="Arial, sans-serif" fill="#111">(B)</text>
<rect x="138.0" y="18.0" width="25.0" height="25.0" fill="#999" stroke="#111" stroke-width="1"/><rect x="163.0" y="18.0" width="25.0" height="25.0" fill="white" stroke="#111" stroke-width="1"/><rect x="188.0" y="18.0" width="25.0" height="25.0" fill="#999" stroke="#111" stroke-width="1"/><rect x="213.0" y="18.0" width="25.0" height="25.0" fill="white" stroke="#111" stroke-width="1"/><rect x="138.0" y="43.0" width="25.0" height="25.0" fill="white" stroke="#111" stroke-width="1"/><rect x="163.0" y="43.0" width="25.0" height="25.0" fill="white" stroke="#111" stroke-width="1"/><rect x="188.0" y="43.0" width="25.0" height="25.0" fill="#999" stroke="#111" stroke-width="1"/><rect x="213.0" y="43.0" width="25.0" height="25.0" fill="white" stroke="#111" stroke-width="1"/><rect x="138.0" y="68.0" width="25.0" height="25.0" fill="white" stroke="#111" stroke-width="1"/><rect x="163.0" y="68.0" width="25.0" height="25.0" fill="#999" stroke="#111" stroke-width="1"/><rect x="188.0" y="68.0" width="25.0" height="25.0" fill="white" stroke="#111" stroke-width="1"/><rect x="213.0" y="68.0" width="25.0" height="25.0" fill="white" stroke="#111" stroke-width="1"/><rect x="138.0" y="93.0" width="25.0" height="25.0" fill="white" stroke="#111" stroke-width="1"/><rect x="163.0" y="93.0" width="25.0" height="25.0" fill="white" stroke="#111" stroke-width="1"/><rect x="188.0" y="93.0" width="25.0" height="25.0" fill="white" stroke="#111" stroke-width="1"/><rect x="213.0" y="93.0" width="25.0" height="25.0" fill="white" stroke="#111" stroke-width="1"/>
<line x1="200.5" y1="30.5" x2="200.5" y2="55.5" stroke="#111" stroke-width="1.6"/>
<line x1="175.5" y1="80.5" x2="150.5" y2="30.5" stroke="#111" stroke-width="1.6"/>
<rect x="256" y="18" width="100" height="100" fill="none" stroke="#111" stroke-width="2.5"/>
<text x="306.0" y="140" font-size="16" text-anchor="middle" font-family="Arial, sans-serif" fill="#111">(C)</text>
<rect x="256.0" y="18.0" width="25.0" height="25.0" fill="#999" stroke="#111" stroke-width="1"/><rect x="281.0" y="18.0" width="25.0" height="25.0" fill="white" stroke="#111" stroke-width="1"/><rect x="306.0" y="18.0" width="25.0" height="25.0" fill="white" stroke="#111" stroke-width="1"/><rect x="331.0" y="18.0" width="25.0" height="25.0" fill="white" stroke="#111" stroke-width="1"/><rect x="256.0" y="43.0" width="25.0" height="25.0" fill="white" stroke="#111" stroke-width="1"/><rect x="281.0" y="43.0" width="25.0" height="25.0" fill="#999" stroke="#111" stroke-width="1"/><rect x="306.0" y="43.0" width="25.0" height="25.0" fill="white" stroke="#111" stroke-width="1"/><rect x="331.0" y="43.0" width="25.0" height="25.0" fill="white" stroke="#111" stroke-width="1"/><rect x="256.0" y="68.0" width="25.0" height="25.0" fill="white" stroke="#111" stroke-width="1"/><rect x="281.0" y="68.0" width="25.0" height="25.0" fill="white" stroke="#111" stroke-width="1"/><rect x="306.0" y="68.0" width="25.0" height="25.0" fill="white" stroke="#111" stroke-width="1"/><rect x="331.0" y="68.0" width="25.0" height="25.0" fill="#999" stroke="#111" stroke-width="1"/><rect x="256.0" y="93.0" width="25.0" height="25.0" fill="white" stroke="#111" stroke-width="1"/><rect x="281.0" y="93.0" width="25.0" height="25.0" fill="white" stroke="#111" stroke-width="1"/><rect x="306.0" y="93.0" width="25.0" height="25.0" fill="#999" stroke="#111" stroke-width="1"/><rect x="331.0" y="93.0" width="25.0" height="25.0" fill="white" stroke="#111" stroke-width="1"/>
<line x1="343.5" y1="80.5" x2="293.5" y2="55.5" stroke="#111" stroke-width="1.6"/>
<line x1="318.5" y1="105.5" x2="268.5" y2="30.5" stroke="#111" stroke-width="1.6"/>
<rect x="374" y="18" width="100" height="100" fill="none" stroke="#111" stroke-width="2.5"/>
<text x="424.0" y="140" font-size="16" text-anchor="middle" font-family="Arial, sans-serif" fill="#111">(D)</text>
<rect x="374.0" y="18.0" width="25.0" height="25.0" fill="#999" stroke="#111" stroke-width="1"/><rect x="399.0" y="18.0" width="25.0" height="25.0" fill="white" stroke="#111" stroke-width="1"/><rect x="424.0" y="18.0" width="25.0" height="25.0" fill="white" stroke="#111" stroke-width="1"/><rect x="449.0" y="18.0" width="25.0" height="25.0" fill="#999" stroke="#111" stroke-width="1"/><rect x="374.0" y="43.0" width="25.0" height="25.0" fill="white" stroke="#111" stroke-width="1"/><rect x="399.0" y="43.0" width="25.0" height="25.0" fill="white" stroke="#111" stroke-width="1"/><rect x="424.0" y="43.0" width="25.0" height="25.0" fill="#999" stroke="#111" stroke-width="1"/><rect x="449.0" y="43.0" width="25.0" height="25.0" fill="white" stroke="#111" stroke-width="1"/><rect x="374.0" y="68.0" width="25.0" height="25.0" fill="white" stroke="#111" stroke-width="1"/><rect x="399.0" y="68.0" width="25.0" height="25.0" fill="white" stroke="#111" stroke-width="1"/><rect x="424.0" y="68.0" width="25.0" height="25.0" fill="white" stroke="#111" stroke-width="1"/><rect x="449.0" y="68.0" width="25.0" height="25.0" fill="white" stroke="#111" stroke-width="1"/><rect x="374.0" y="93.0" width="25.0" height="25.0" fill="white" stroke="#111" stroke-width="1"/><rect x="399.0" y="93.0" width="25.0" height="25.0" fill="#999" stroke="#111" stroke-width="1"/><rect x="424.0" y="93.0" width="25.0" height="25.0" fill="white" stroke="#111" stroke-width="1"/><rect x="449.0" y="93.0" width="25.0" height="25.0" fill="white" stroke="#111" stroke-width="1"/>
<line x1="411.5" y1="105.5" x2="436.5" y2="55.5" stroke="#111" stroke-width="1.6"/>
<line x1="386.5" y1="30.5" x2="461.5" y2="30.5" stroke="#111" stroke-width="1.6"/>
<rect x="492" y="18" width="100" height="100" fill="none" stroke="#111" stroke-width="2.5"/>
<text x="542.0" y="140" font-size="16" text-anchor="middle" font-family="Arial, sans-serif" fill="#111">(E)</text>
<rect x="492.0" y="18.0" width="25.0" height="25.0" fill="white" stroke="#111" stroke-width="1"/><rect x="517.0" y="18.0" width="25.0" height="25.0" fill="white" stroke="#111" stroke-width="1"/><rect x="542.0" y="18.0" width="25.0" height="25.0" fill="white" stroke="#111" stroke-width="1"/><rect x="567.0" y="18.0" width="25.0" height="25.0" fill="white" stroke="#111" stroke-width="1"/><rect x="492.0" y="43.0" width="25.0" height="25.0" fill="#999" stroke="#111" stroke-width="1"/><rect x="517.0" y="43.0" width="25.0" height="25.0" fill="white" stroke="#111" stroke-width="1"/><rect x="542.0" y="43.0" width="25.0" height="25.0" fill="white" stroke="#111" stroke-width="1"/><rect x="567.0" y="43.0" width="25.0" height="25.0" fill="white" stroke="#111" stroke-width="1"/><rect x="492.0" y="68.0" width="25.0" height="25.0" fill="white" stroke="#111" stroke-width="1"/><rect x="517.0" y="68.0" width="25.0" height="25.0" fill="#999" stroke="#111" stroke-width="1"/><rect x="542.0" y="68.0" width="25.0" height="25.0" fill="white" stroke="#111" stroke-width="1"/><rect x="567.0" y="68.0" width="25.0" height="25.0" fill="#999" stroke="#111" stroke-width="1"/><rect x="492.0" y="93.0" width="25.0" height="25.0" fill="white" stroke="#111" stroke-width="1"/><rect x="517.0" y="93.0" width="25.0" height="25.0" fill="white" stroke="#111" stroke-width="1"/><rect x="542.0" y="93.0" width="25.0" height="25.0" fill="#999" stroke="#111" stroke-width="1"/><rect x="567.0" y="93.0" width="25.0" height="25.0" fill="white" stroke="#111" stroke-width="1"/>
<line x1="504.5" y1="55.5" x2="554.5" y2="105.5" stroke="#111" stroke-width="1.6"/>
<line x1="579.5" y1="80.5" x2="504.5" y2="30.5" stroke="#111" stroke-width="1.6"/>
</svg>