<svg xmlns="http://www.w3.org/2000/svg" viewBox="0 0 460 205" width="460" height="205">
  <rect x="1" y="1" width="458" height="203" rx="12" fill="#fff" stroke="#cbd5e0"/>
  <g stroke="#1a365d" stroke-width="3">
    <polygon points="54,32 78,78 30,78" fill="#94a3b8"/>
    <polygon points="138,34 184,58 138,82" fill="white"/>
    <polygon points="274,78 226,78 250,32" fill="#94a3b8"/>
  </g>
  <text x="330" y="66" font-family="sans-serif" font-size="28" fill="#718096">?</text>
  <g font-family="sans-serif" font-size="13" fill="#475569">
    <text x="48" y="104">1</text>
    <text x="148" y="104">2</text>
    <text x="248" y="104">3</text>
    <text x="324" y="104">4</text>
  </g>
  <g font-family="sans-serif" font-size="14" fill="#1a365d">
    <text x="44" y="138">A</text>
    <text x="144" y="138">B</text>
    <text x="244" y="138">C</text>
    <text x="344" y="138">D</text>
  </g>
  <g stroke="#1a365d" stroke-width="3">
    <polygon points="76,150 30,174 76,198" fill="white"/>
    <polygon points="154,148 178,194 130,194" fill="#94a3b8"/>
    <polygon points="254,198 278,152 230,152" fill="#94a3b8"/>
    <polygon points="330,150 330,198 376,174" fill="white"/>
  </g>
</svg>
